<svg width="18" height="18" viewBox="0 0 18 18" fill="none" xmlns="http://www.w3.org/2000/svg">
<path d="M17.2815 5.49693C16.3325 3.28443 14.7199 1.67534 12.4889 0.723841C11.3739 0.248283 10.2056 0.00537109 8.98521 0.00537109C7.76497 0.00537109 6.60538 0.245989 5.49156 0.723841C3.27906 1.67281 1.65926 3.28087 0.708588 5.49693C0.232206 6.60716 0 7.77031 0 8.99055C0 10.211 0.232206 11.3838 0.708588 12.4943C1.65926 14.7103 3.27926 16.328 5.49156 17.2772C6.60559 17.7551 7.76494 17.9955 8.98521 17.9955C10.2055 17.9955 11.3739 17.7526 12.4887 17.2772C14.7197 16.3257 16.3324 14.7066 17.2816 12.4943C17.7594 11.3802 18 10.211 18 8.99055C18 7.77031 17.7596 6.61093 17.2815 5.49693ZM15.8448 12.9667C15.1383 14.1783 14.1704 15.1395 12.9514 15.8502C11.7398 16.5567 10.4123 16.913 8.98541 16.913C7.91276 16.913 6.88924 16.7064 5.91482 16.2831C4.94044 15.8601 4.09915 15.3039 3.39538 14.6003C2.69162 13.8966 2.13147 13.0471 1.71262 12.071C1.295 11.0985 1.09262 10.0634 1.09262 8.99057C1.09262 7.56352 1.44324 6.24269 2.14576 5.03443C2.85079 3.82175 3.81888 2.85952 5.02926 2.1509C6.23944 1.44231 7.55838 1.0879 8.98521 1.0879C10.4123 1.0879 11.7396 1.4444 12.9512 2.1509C14.1702 2.86161 15.136 3.82381 15.8446 5.0344C16.5532 6.24478 16.9074 7.56352 16.9074 8.99055C16.9074 10.4176 16.5555 11.7475 15.8448 12.9667Z" fill="#ACACAC"/>
<path d="M9.55606 8.91124V3.81332C9.55606 3.50827 9.29026 3.26221 8.98517 3.26221C8.69985 3.26221 8.44391 3.50827 8.44391 3.81332V8.98994C8.44391 8.99982 8.46364 9.03929 8.46364 9.06871C8.44391 9.24588 8.49326 9.3935 8.61126 9.51171L11.554 12.4542C11.7509 12.6511 12.115 12.6511 12.3117 12.4542C12.538 12.2279 12.5231 11.8995 12.3117 11.6866L9.55606 8.91124Z" fill="#ACACAC"/>
</svg>
