<svg width="20" height="20" viewBox="0 0 20 20" fill="none" xmlns="http://www.w3.org/2000/svg">
<g clip-path="url(#clip0)">
<path d="M19.6757 9.05851C18.5532 7.61933 17.0993 6.4289 15.4711 5.61601C13.8091 4.78621 12.0211 4.35566 10.1545 4.33309C10.1031 4.33168 9.89672 4.33168 9.84532 4.33309C7.97884 4.3557 6.19079 4.78621 4.52877 5.61601C2.90061 6.4289 1.44674 7.61929 0.324243 9.05851C-0.108178 9.61292 -0.108178 10.3873 0.324243 10.9417C1.4467 12.3809 2.90061 13.5714 4.52877 14.3842C6.19079 15.214 7.9788 15.6446 9.84532 15.6672C9.89672 15.6686 10.1031 15.6686 10.1545 15.6672C12.021 15.6446 13.8091 15.214 15.4711 14.3842C17.0993 13.5714 18.5532 12.381 19.6757 10.9417C20.1081 10.3873 20.1081 9.61292 19.6757 9.05851ZM4.89224 13.6563C3.37193 12.8973 2.0142 11.7855 0.965805 10.4414C0.763188 10.1816 0.763188 9.8187 0.965805 9.5589C2.01416 8.21472 3.37189 7.103 4.89224 6.34394C5.32404 6.12839 5.76498 5.94199 6.21408 5.78418C5.05869 6.82277 4.33076 8.32792 4.33076 10.0001C4.33076 11.6724 5.05873 13.1776 6.21423 14.2162C5.76513 14.0584 5.32408 13.8719 4.89224 13.6563ZM9.99997 14.8557C7.32255 14.8557 5.14435 12.6775 5.14435 10.0001C5.14435 7.32265 7.32255 5.14449 9.99997 5.14449C12.6774 5.14449 14.8556 7.32269 14.8556 10.0001C14.8556 12.6775 12.6774 14.8557 9.99997 14.8557ZM19.0341 10.4413C17.9858 11.7855 16.628 12.8972 15.1077 13.6563C14.6764 13.8716 14.2357 14.0572 13.7872 14.2148C14.9418 13.1763 15.6692 11.6716 15.6692 10.0001C15.6692 8.32765 14.9411 6.8223 13.7855 5.78371C14.2347 5.94156 14.6758 6.1282 15.1077 6.34386C16.628 7.10292 17.9858 8.21464 19.0342 9.55882C19.2367 9.81866 19.2367 10.1815 19.0341 10.4413Z" fill="#ACACAC"/>
<path d="M9.99999 7.92188C8.85421 7.92188 7.92206 8.85402 7.92206 9.9998C7.92206 11.1456 8.85421 12.0777 9.99999 12.0777C11.1458 12.0777 12.0779 11.1456 12.0779 9.9998C12.078 8.85402 11.1458 7.92188 9.99999 7.92188ZM9.99999 11.2642C9.30284 11.2642 8.73561 10.697 8.73561 9.9998C8.73561 9.30261 9.30276 8.73547 9.99999 8.73547C10.6971 8.73547 11.2643 9.30261 11.2643 9.9998C11.2644 10.697 10.6971 11.2642 9.99999 11.2642Z" fill="#ACACAC"/>
</g>
<defs>
<clipPath id="clip0">
<rect width="20" height="20" fill="white"/>
</clipPath>
</defs>
</svg>
