<svg width="12" height="20" viewBox="0 0 12 20" fill="none" xmlns="http://www.w3.org/2000/svg">
<path d="M10.8353 0.00404091L8.31684 0C5.48742 0 3.65893 1.87599 3.65893 4.77959V6.9833H1.12672C0.907905 6.9833 0.730713 7.1607 0.730713 7.37951V10.5724C0.730713 10.7913 0.908107 10.9684 1.12672 10.9684H3.65893V19.0252C3.65893 19.244 3.83612 19.4212 4.05493 19.4212H7.35875C7.57756 19.4212 7.75476 19.2438 7.75476 19.0252V10.9684H10.7155C10.9343 10.9684 11.1115 10.7913 11.1115 10.5724L11.1127 7.37951C11.1127 7.27445 11.0709 7.17383 10.9967 7.09948C10.9226 7.02513 10.8216 6.9833 10.7165 6.9833H7.75476V5.11519C7.75476 4.2173 7.96872 3.76148 9.13835 3.76148L10.8349 3.76088C11.0535 3.76088 11.2307 3.58348 11.2307 3.36487V0.40005C11.2307 0.181639 11.0537 0.004445 10.8353 0.00404091Z" fill="#AFAFAF"/>
</svg>
