<svg width="14" height="11" viewBox="0 0 14 11" fill="none" xmlns="http://www.w3.org/2000/svg">
<path d="M13.6818 0H0.318182C0.142227 0 0 0.142227 0 0.318182V9.86364C0 10.0396 0.142227 10.1818 0.318182 10.1818H13.6818C13.8575 10.1818 14 10.0396 14 9.86364V0.318182C14 0.142227 13.8575 0 13.6818 0ZM13.3636 8.77577L9.422 4.83445L8.97209 5.28436L13.2332 9.54545H0.766818L5.02791 5.28436L4.578 4.83445L0.636364 8.77577V0.636364H13.3636V8.77577Z" fill="#95A4AA"/>
<path d="M12.7206 0.63623L6.99999 6.35682L1.2794 0.63623H0.636353V0.893003L6.77503 7.03168C6.89944 7.15609 7.10053 7.15609 7.22494 7.03168L13.3636 0.893003V0.63623H12.7206Z" fill="#95A4AA"/>
</svg>
