<svg width="18" height="18" viewBox="0 0 18 18" fill="none" xmlns="http://www.w3.org/2000/svg">
<g clip-path="url(#clip0)">
<path d="M17.741 16.141L13.6644 12.2252C14.6664 10.9846 15.2645 9.42914 15.2645 7.74073C15.2645 3.69794 11.8407 0.40918 7.63166 0.40918C3.42378 0.408945 0 3.69771 0 7.74073C0 11.7838 3.42378 15.0728 7.63189 15.0728C9.44711 15.0728 11.1156 14.4601 12.4271 13.4398L16.4898 17.3421C16.6617 17.5081 16.8888 17.5913 17.1149 17.5913C17.342 17.5913 17.5681 17.5081 17.741 17.3421C18.0864 17.0098 18.0864 16.473 17.741 16.141ZM1.76966 7.74073C1.76966 4.63561 4.39973 2.1098 7.63189 2.1098C10.865 2.1098 13.4951 4.63561 13.4951 7.74073C13.4951 10.8459 10.865 13.3733 7.63189 13.3733C4.39973 13.3733 1.76966 10.8456 1.76966 7.74073Z" fill="#AFAFAF"/>
</g>
<defs>
<clipPath id="clip0">
<rect width="18" height="18" fill="white"/>
</clipPath>
</defs>
</svg>
