<svg width="24" height="17" viewBox="0 0 24 17" fill="none" xmlns="http://www.w3.org/2000/svg">
<path d="M22.6954 1.84868C21.8791 0.878264 20.3719 0.482422 17.4935 0.482422H7.04479C4.10049 0.482422 2.56775 0.903798 1.75447 1.93696C0.961548 2.94429 0.961548 4.42851 0.961548 6.48272V10.398C0.961548 14.3777 1.90235 16.3983 7.04479 16.3983H17.4935C19.9897 16.3983 21.3729 16.049 22.2677 15.1926C23.1854 14.3144 23.5769 12.8805 23.5769 10.398V6.48272C23.5769 4.31639 23.5156 2.82341 22.6954 1.84868ZM15.4807 8.98092L10.736 11.4607C10.6299 11.5161 10.5139 11.5436 10.3981 11.5436C10.2669 11.5436 10.136 11.5083 10.0201 11.4381C9.80183 11.3059 9.66854 11.0693 9.66854 10.8141V5.8705C9.66854 5.61575 9.80146 5.37938 10.0193 5.24705C10.2372 5.11471 10.5082 5.10566 10.7343 5.22312L15.479 7.68688C15.7204 7.81221 15.872 8.06142 15.8724 8.33332C15.8727 8.60543 15.7217 8.855 15.4807 8.98092Z" fill="#AFAFAF"/>
</svg>
