<svg width="44" height="45" viewBox="0 0 44 45" fill="none" xmlns="http://www.w3.org/2000/svg">
<path fill-rule="evenodd" clip-rule="evenodd" d="M30.038 30.8111C30.0242 30.8111 30.0116 30.8153 29.999 30.8194C29.9891 30.8227 29.9791 30.826 29.9686 30.8272C29.9523 30.8291 29.9398 30.8285 29.9272 30.8279L29.9149 30.8273L29.9077 30.8272L22.7333 32.4242V26.5371L33.1117 24.9355L33.1217 24.9319C34.2844 24.8675 35.1954 23.9085 35.2 22.7444V21.2778C35.2 20.0625 34.2153 19.0778 33 19.0778H22.7333V5.77357C24.1638 5.4044 25.0963 4.02904 24.9101 2.5638C24.7239 1.09821 23.4774 0 22 0C20.523 0 19.2761 1.09821 19.0903 2.5638C18.9041 4.02904 19.8365 5.4044 21.2667 5.77357V19.0778H11C9.78506 19.0778 8.8 20.0625 8.8 21.2778V22.7444C8.8 23.9594 9.78506 24.9444 11 24.9444C11.405 24.9444 11.7333 24.6161 11.7333 24.2111C11.7333 23.8061 11.405 23.4778 11 23.4778C10.595 23.4778 10.2667 23.1494 10.2667 22.7444V21.2778C10.2667 20.8728 10.595 20.5444 11 20.5444H21.2667V25.2796L13.9333 26.4111C12.7098 26.4451 11.7351 27.4463 11.7333 28.6705V30.0169C11.7344 31.2648 12.7456 32.2763 13.9935 32.2778H15.4C15.805 32.2778 16.1333 31.9494 16.1333 31.5444C16.1333 31.1395 15.805 30.8111 15.4 30.8111H13.9935C13.5556 30.8107 13.2004 30.4555 13.2 30.0176V28.6713C13.2004 28.233 13.5556 27.8781 13.9935 27.8778C14.0311 27.8778 14.0683 27.8749 14.1052 27.8688L21.2667 26.7638V32.7486L16.7789 33.7444C15.5984 33.7917 14.666 34.7628 14.6667 35.9444V37.4111C14.6667 38.626 15.6517 39.6111 16.8667 39.6111H18.3333C18.7383 39.6111 19.0667 39.2828 19.0667 38.8778C19.0667 38.4728 18.7383 38.1444 18.3333 38.1444H16.8667C16.4617 38.1444 16.1333 37.8161 16.1333 37.4111V35.9444C16.1333 35.5395 16.4617 35.2111 16.8667 35.2111C16.9204 35.2111 16.9737 35.205 17.026 35.1936L21.2667 34.2511V44.0111C21.2667 44.4161 21.595 44.7444 22 44.7444C22.405 44.7444 22.7333 44.4161 22.7333 44.0111V33.9245L30.226 32.2602H30.2325C31.3883 32.151 32.2703 31.1785 32.2667 30.0176V28.6713C32.2656 27.4234 31.2544 26.4122 30.0065 26.4111H28.6C28.195 26.4111 27.8667 26.7395 27.8667 27.1444C27.8667 27.5494 28.195 27.8778 28.6 27.8778H30.0065C30.4448 27.8781 30.7996 28.233 30.8 28.6713V30.0176C30.8014 30.4441 30.4645 30.7954 30.038 30.8111ZM20.5333 2.94443C20.5333 2.13447 21.19 1.47777 22 1.47777C22.8103 1.47777 23.4667 2.13447 23.4667 2.94443C23.4667 3.7544 22.8103 4.4111 22 4.4111C21.19 4.4111 20.5333 3.7544 20.5333 2.94443ZM22.7333 20.5444H33C33.405 20.5444 33.7333 20.8728 33.7333 21.2778V22.7444C33.7333 23.1494 33.405 23.4778 33 23.4778C32.9893 23.4778 32.9794 23.4805 32.9696 23.4833L32.9665 23.4841C32.9593 23.4861 32.9521 23.4879 32.9445 23.4885C32.9402 23.4889 32.936 23.4889 32.9319 23.4887L32.9272 23.4883L32.9207 23.4877C32.9101 23.4867 32.8996 23.4856 32.8886 23.4885L22.7333 25.0536V20.5444ZM7.92953 13.9445C6.214 13.9402 4.74984 12.7023 4.46016 11.0111H3.5596C1.59486 11.0086 0.00250651 9.41626 0 7.45151V7.34445C0 6.93947 0.328353 6.61112 0.733334 6.61112H19.8C20.205 6.61112 20.5333 6.93947 20.5333 7.34445V16.1445C20.5333 16.5494 20.205 16.8778 19.8 16.8778H11.6402C9.91647 16.8738 8.44086 15.6403 8.13148 13.9445H7.92953ZM19.0667 11.0111H5.95475C6.21901 11.8809 7.02038 12.4764 7.92953 12.4778H19.0667V11.0111ZM11.6402 15.4111H19.0667V13.9445H9.63324C9.91253 14.8174 10.7236 15.41 11.6402 15.4111ZM19.0667 8.07778H1.56299C1.83727 8.94969 2.64544 9.54338 3.5596 9.54445H19.0667V8.07778ZM43.2667 6.61112H24.2C23.795 6.61112 23.4667 6.93947 23.4667 7.34445V16.1445C23.4667 16.5494 23.795 16.8778 24.2 16.8778H32.3598C34.0839 16.8738 35.5595 15.6403 35.8689 13.9445H36.0705C37.7864 13.9402 39.2505 12.7023 39.5398 11.0111H40.4404C42.4055 11.0086 43.9978 9.41626 44 7.45151V7.34445C44 6.93947 43.6716 6.61112 43.2667 6.61112ZM32.3598 15.4111H24.9333V13.9445H34.3671C34.0875 14.8174 33.2764 15.41 32.3598 15.4111ZM36.0705 12.4778H24.9333V11.0111H38.0456C37.7813 11.8809 36.9796 12.4764 36.0705 12.4778ZM40.4404 9.54445H24.9333V8.07778H42.4374C42.1631 8.94969 41.3549 9.54338 40.4404 9.54445ZM27.1333 33.7445H25.6667C25.2617 33.7445 24.9333 34.0729 24.9333 34.4779C24.9333 34.8828 25.2617 35.2112 25.6667 35.2112H27.1333C27.5383 35.2112 27.8667 35.5395 27.8667 35.9445V37.4112C27.8667 37.8162 27.5383 38.1445 27.1333 38.1445H25.6667C25.2617 38.1445 24.9333 38.4729 24.9333 38.8779C24.9333 39.2828 25.2617 39.6112 25.6667 39.6112H27.1333C28.3486 39.6112 29.3333 38.6261 29.3333 37.4112V35.9445C29.3333 34.7292 28.3486 33.7445 27.1333 33.7445ZM14.9603 5.87795C14.8675 5.91733 14.7676 5.93774 14.6667 5.93739C14.3193 5.93774 14.0193 5.6939 13.948 5.35373C13.8771 5.01356 14.0547 4.67017 14.3734 4.53159C15.3595 4.1019 16.3804 3.75672 17.4249 3.49962C17.8184 3.40295 18.2159 3.64321 18.3126 4.03673C18.4092 4.43026 18.169 4.82772 17.7755 4.9244C16.8115 5.1618 15.8698 5.48084 14.9603 5.87795ZM13.5513 37.4111H13.5448C11.4877 36.2703 9.67406 34.7385 8.20524 32.9008C7.94993 32.5933 7.49697 32.5413 7.17864 32.7838C7.02324 32.9016 6.92262 33.0781 6.90042 33.2718C6.87822 33.4659 6.93623 33.6603 7.06155 33.8103C7.69069 34.6092 8.38499 35.3547 9.13659 36.0397C10.2624 37.0706 11.5081 37.9618 12.8473 38.6945C12.9536 38.7582 13.0754 38.7911 13.1993 38.7897C13.5359 38.7915 13.8302 38.5638 13.9136 38.2379C13.9967 37.9117 13.8474 37.5708 13.5513 37.4111ZM5.03092 26.7192C5.08033 26.9051 5.05383 27.1027 4.95751 27.2692C4.86406 27.4408 4.70543 27.5675 4.51744 27.6212C4.45263 27.6359 4.38603 27.6431 4.31943 27.6431C3.99143 27.6423 3.7039 27.4236 3.61546 27.1077C3.20904 25.6371 2.97988 24.1228 2.93333 22.5978V22.5466C2.92616 22.3558 2.92616 22.1799 2.92616 22.0113C2.92581 21.1899 2.97737 20.3695 3.08014 19.5546C3.13349 19.1532 3.49944 18.8688 3.90156 18.9165C4.09527 18.9405 4.27144 19.0404 4.3914 19.1947C4.511 19.3487 4.56435 19.5442 4.53928 19.7379C4.4426 20.4916 4.39355 21.2511 4.39283 22.0113C4.39283 22.1799 4.39283 22.3633 4.39999 22.5466C4.44296 23.9578 4.65458 25.3586 5.03092 26.7192ZM39.7909 15.3009C39.6419 14.9274 39.2215 14.7416 38.8448 14.883C38.6608 14.9485 38.514 15.0903 38.4416 15.2719C38.36 15.4473 38.3543 15.6489 38.4259 15.829C39.064 17.4916 39.45 19.24 39.5714 21.0168C39.5986 21.4067 39.6 21.7992 39.6 22.1899C39.6 22.3578 39.6 22.5264 39.5928 22.7223C39.5864 22.9178 39.6577 23.1076 39.7909 23.2505C39.9233 23.3937 40.1092 23.476 40.304 23.4778H40.3179C40.715 23.4825 41.0438 23.1703 41.0595 22.7739C41.0667 22.5537 41.0667 22.3485 41.0667 22.1651C41.071 19.8176 40.6381 17.4901 39.7909 15.3009ZM37.9869 29.3809C38.1613 29.0175 38.5935 28.8581 38.9623 29.0218C39.3271 29.1912 39.4876 29.623 39.3214 29.9897C38.6798 31.3761 37.8748 32.6809 36.9234 33.8762C36.9177 33.8894 36.9073 33.8998 36.894 33.9055C36.2721 34.6926 35.5878 35.4281 34.848 36.1055C34.7094 36.2259 34.5329 36.2932 34.3496 36.2964C34.0466 36.2957 33.7756 36.1088 33.6671 35.8266C33.5582 35.5441 33.6341 35.224 33.8583 35.0202C34.5505 34.3864 35.1928 33.6996 35.7794 32.967C36.6552 31.8638 37.3964 30.66 37.9869 29.3809ZM26.2249 4.92422C27.1885 5.16163 28.1306 5.48067 29.0401 5.87777C29.4114 6.03926 29.8432 5.86954 30.0051 5.49857C30.0835 5.32025 30.0878 5.11794 30.0169 4.9364C29.9457 4.75486 29.8053 4.60912 29.627 4.53142C28.6408 4.10066 27.62 3.7544 26.5755 3.49659C26.1812 3.39991 25.7831 3.64089 25.6864 4.03513C25.5893 4.42937 25.8307 4.82754 26.2249 4.92422ZM5.13332 16.1443C5.5383 16.1443 5.86666 15.8159 5.86666 15.411C5.86666 15.006 5.5383 14.6776 5.13332 14.6776C4.72834 14.6776 4.39999 15.006 4.39999 15.411C4.39999 15.8159 4.72834 16.1443 5.13332 16.1443ZM5.86666 29.3446C5.86666 29.7496 5.5383 30.0779 5.13332 30.0779C4.72834 30.0779 4.39999 29.7496 4.39999 29.3446C4.39999 28.9396 4.72834 28.6113 5.13332 28.6113C5.5383 28.6113 5.86666 28.9396 5.86666 29.3446ZM39.6 28.6111C40.005 28.6111 40.3334 28.2828 40.3334 27.8778C40.3334 27.4728 40.005 27.1445 39.6 27.1445C39.195 27.1445 38.8667 27.4728 38.8667 27.8778C38.8667 28.2828 39.195 28.6111 39.6 28.6111Z" fill="white"/>
</svg>
